<svg version="1.1" xmlns="http://www.w3.org/2000/svg" xmlns:xlink="http://www.w3.org/1999/xlink" width="400" height="100" style="width: 400px; height: 100px;"><defs><clipPath id="RXTOBqCzMkGx"><path fill="none" stroke="none" d=" M 28 10 L 395 10 L 395 94 L 28 94 L 28 10 Z"/></clipPath><clipPath id="MdoqAhosruFy"><path fill="none" stroke="none" d=" M 28 10 L 395 10 L 395 94 L 28 94 L 28 10 Z"/></clipPath></defs><g><g transform="scale(1,1) translate(0.5,0.5)"><rect fill="#FFFFFF" stroke="none" x="0" y="0" width="400" height="100"/><rect fill="#ffffff" stroke="none" x="0" y="0" width="400" height="100"/><rect fill="#FFFFFF" stroke="none" x="28" y="10" width="367" height="84"/><rect fill="rgb(229, 229, 229)" stroke="none" x="28" y="10" width="367" height="84"/><g><rect fill="none" stroke="#e5e5e5" x="28" y="10" width="367" height="84" stroke-miterlimit="10" stroke-opacity="0"/></g><g clip-path="url(#RXTOBqCzMkGx)"><g><g/><g/><g><path fill="none" stroke="none"/><rect fill="rgb(250, 250, 250)" stroke="none" x="89.16666666666667" y="-5282" width="244.66666666666663" height="10752"/><path fill="none" stroke="rgb(250, 250, 250)" paint-order="fill stroke markers" d=" M 89.16666666666667 -5282 L 333.8333333333333 -5282 L 333.8333333333333 5470 L 89.16666666666667 5470 L 89.16666666666667 -5282 Z" stroke-miterlimit="10"/></g><g><path fill="none" stroke="none"/><rect fill="#378dba" stroke="none" x="28" y="94" width="22.9375" height="0" fill-opacity="0.5"/><path fill="none" stroke="black" paint-order="fill stroke markers" d=" M 28 94 L 50.9375 94 L 50.9375 94 L 28 94 L 28 94 Z" stroke-miterlimit="10" stroke-opacity="0.5"/><rect fill="#378dba" stroke="none" x="50.9375" y="94" width="22.9375" height="0" fill-opacity="0.5"/><path fill="none" stroke="black" paint-order="fill stroke markers" d=" M 50.9375 94 L 73.875 94 L 73.875 94 L 50.9375 94 L 50.9375 94 Z" stroke-miterlimit="10" stroke-opacity="0.5"/><rect fill="#378dba" stroke="none" x="73.875" y="94" width="22.9375" height="0" fill-opacity="0.5"/><path fill="none" stroke="black" paint-order="fill stroke markers" d=" M 73.875 94 L 96.8125 94 L 96.8125 94 L 73.875 94 L 73.875 94 Z" stroke-miterlimit="10" stroke-opacity="0.5"/><rect fill="#7ecba4" stroke="none" x="96.8125" y="94" width="22.9375" height="0" fill-opacity="0.5"/><path fill="none" stroke="black" paint-order="fill stroke markers" d=" M 96.8125 94 L 119.75 94 L 119.75 94 L 96.8125 94 L 96.8125 94 Z" stroke-miterlimit="10" stroke-opacity="0.5"/><rect fill="#cceaa2" stroke="none" x="119.75" y="94" width="22.9375" height="0" fill-opacity="0.5"/><path fill="none" stroke="black" paint-order="fill stroke markers" d=" M 119.75 94 L 142.6875 94 L 142.6875 94 L 119.75 94 L 119.75 94 Z" stroke-miterlimit="10" stroke-opacity="0.5"/><rect fill="#fdd284" stroke="none" x="142.6875" y="94" width="22.9375" height="0" fill-opacity="0.5"/><path fill="none" stroke="black" paint-order="fill stroke markers" d=" M 142.6875 94 L 165.625 94 L 165.625 94 L 142.6875 94 L 142.6875 94 Z" stroke-miterlimit="10" stroke-opacity="0.5"/><rect fill="#f78d53" stroke="none" x="165.625" y="94" width="22.9375" height="0" fill-opacity="0.5"/><path fill="none" stroke="black" paint-order="fill stroke markers" d=" M 165.625 94 L 188.5625 94 L 188.5625 94 L 165.625 94 L 165.625 94 Z" stroke-miterlimit="10" stroke-opacity="0.5"/><rect fill="#9e0142" stroke="none" x="188.5625" y="91.6" width="22.9375" height="2.4000000000000057" fill-opacity="0.5"/><path fill="none" stroke="black" paint-order="fill stroke markers" d=" M 188.5625 91.6 L 211.5 91.6 L 211.5 94 L 188.5625 94 L 188.5625 91.6 Z" stroke-miterlimit="10" stroke-opacity="0.5"/><rect fill="#9e0142" stroke="none" x="211.5" y="32.199999999999996" width="22.9375" height="61.800000000000004" fill-opacity="0.5"/><path fill="none" stroke="black" paint-order="fill stroke markers" d=" M 211.5 32.199999999999996 L 234.4375 32.199999999999996 L 234.4375 94 L 211.5 94 L 211.5 32.199999999999996 Z" stroke-miterlimit="10" stroke-opacity="0.5"/><rect fill="#f78d53" stroke="none" x="234.4375" y="46" width="22.9375" height="48" fill-opacity="0.5"/><path fill="none" stroke="black" paint-order="fill stroke markers" d=" M 234.4375 46 L 257.375 46 L 257.375 94 L 234.4375 94 L 234.4375 46 Z" stroke-miterlimit="10" stroke-opacity="0.5"/><rect fill="#fdd284" stroke="none" x="257.375" y="65.2" width="22.9375" height="28.799999999999997" fill-opacity="0.5"/><path fill="none" stroke="black" paint-order="fill stroke markers" d=" M 257.375 65.2 L 280.3125 65.2 L 280.3125 94 L 257.375 94 L 257.375 65.2 Z" stroke-miterlimit="10" stroke-opacity="0.5"/><rect fill="#cceaa2" stroke="none" x="280.3125" y="76.6" width="22.9375" height="17.400000000000006" fill-opacity="0.5"/><path fill="none" stroke="black" paint-order="fill stroke markers" d=" M 280.3125 76.6 L 303.25 76.6 L 303.25 94 L 280.3125 94 L 280.3125 76.6 Z" stroke-miterlimit="10" stroke-opacity="0.5"/><rect fill="#7ecba4" stroke="none" x="303.25" y="86.2" width="22.9375" height="7.799999999999997" fill-opacity="0.5"/><path fill="none" stroke="black" paint-order="fill stroke markers" d=" M 303.25 86.2 L 326.1875 86.2 L 326.1875 94 L 303.25 94 L 303.25 86.2 Z" stroke-miterlimit="10" stroke-opacity="0.5"/><rect fill="#378dba" stroke="none" x="326.1875" y="92.2" width="22.9375" height="1.7999999999999972" fill-opacity="0.5"/><path fill="none" stroke="black" paint-order="fill stroke markers" d=" M 326.1875 92.2 L 349.125 92.2 L 349.125 94 L 326.1875 94 L 326.1875 92.2 Z" stroke-miterlimit="10" stroke-opacity="0.5"/><rect fill="#378dba" stroke="none" x="349.125" y="94" width="22.9375" height="0" fill-opacity="0.5"/><path fill="none" stroke="black" paint-order="fill stroke markers" d=" M 349.125 94 L 372.0625 94 L 372.0625 94 L 349.125 94 L 349.125 94 Z" stroke-miterlimit="10" stroke-opacity="0.5"/><rect fill="#378dba" stroke="none" x="372.0625" y="94" width="22.9375" height="0" fill-opacity="0.5"/><path fill="none" stroke="black" paint-order="fill stroke markers" d=" M 372.0625 94 L 395 94 L 395 94 L 372.0625 94 L 372.0625 94 Z" stroke-miterlimit="10" stroke-opacity="0.5"/></g></g></g><g clip-path="url(#MdoqAhosruFy)"><g><g><path fill="none" stroke="black" paint-order="fill stroke markers" d=" M 211.5 10 L 211.5 94" stroke-miterlimit="10" stroke-opacity="0.5" stroke-dasharray="6"/></g></g></g><g><g fill="#444444"><path fill="none" stroke="black" paint-order="fill stroke markers" d=" M 28 94 L 395 94" stroke-miterlimit="10"/><path fill="none" stroke="black" paint-order="fill stroke markers" d=" M 28 100 L 28 94" stroke-miterlimit="10"/><path fill="none" stroke="black" paint-order="fill stroke markers" d=" M 89 100 L 89 94" stroke-miterlimit="10"/><path fill="none" stroke="black" paint-order="fill stroke markers" d=" M 150 100 L 150 94" stroke-miterlimit="10"/><path fill="none" stroke="black" paint-order="fill stroke markers" d=" M 212 100 L 212 94" stroke-miterlimit="10"/><path fill="none" stroke="black" paint-order="fill stroke markers" d=" M 273 100 L 273 94" stroke-miterlimit="10"/><path fill="none" stroke="black" paint-order="fill stroke markers" d=" M 334 100 L 334 94" stroke-miterlimit="10"/><path fill="" stroke="black" paint-order="fill stroke markers" d=" M 395 100 L 395 94" stroke-miterlimit="10"/><g transform="translate(28,105) rotate(0,0,0)"><text fill="" stroke="none" font-family="helvetica" font-size="0pt" font-style="normal" font-weight="normal" text-decoration="normal" x="0" y="0" text-anchor="middle" dominant-baseline="hanging">-12</text><g transform="rotate(0,0,0) translate(-28,-105) translate(89,105) rotate(0,0,0)"><text fill="" stroke="none" font-family="helvetica" font-size="0pt" font-style="normal" font-weight="normal" text-decoration="normal" x="0" y="0" text-anchor="middle" dominant-baseline="hanging">-8</text><g transform="rotate(0,0,0) translate(-89,-105) translate(150,105) rotate(0,0,0)"><text fill="" stroke="none" font-family="helvetica" font-size="0pt" font-style="normal" font-weight="normal" text-decoration="normal" x="0" y="0" text-anchor="middle" dominant-baseline="hanging">-4</text><g transform="rotate(0,0,0) translate(-150,-105) translate(212,105) rotate(0,0,0)"><text fill="" stroke="none" font-family="helvetica" font-size="0pt" font-style="normal" font-weight="normal" text-decoration="normal" x="0" y="0" text-anchor="middle" dominant-baseline="hanging">0</text><g transform="rotate(0,0,0) translate(-212,-105) translate(273,105) rotate(0,0,0)"><text fill="" stroke="none" font-family="helvetica" font-size="0pt" font-style="normal" font-weight="normal" text-decoration="normal" x="0" y="0" text-anchor="middle" dominant-baseline="hanging">4</text><g transform="rotate(0,0,0) translate(-273,-105) translate(334,105) rotate(0,0,0)"><text fill="" stroke="none" font-family="helvetica" font-size="0pt" font-style="normal" font-weight="normal" text-decoration="normal" x="0" y="0" text-anchor="middle" dominant-baseline="hanging">8</text><g transform="rotate(0,0,0) translate(-334,-105) translate(395,105) rotate(0,0,0)"><text fill="" stroke="none" font-family="helvetica" font-size="0pt" font-style="normal" font-weight="normal" text-decoration="normal" x="0" y="0" text-anchor="middle" dominant-baseline="hanging">12</text><g transform="rotate(0,0,0) translate(-395,-105)"/></g></g></g></g></g></g></g></g><g fill="#444444"><path fill="none" stroke="black" paint-order="fill stroke markers" d=" M 28 94 L 28 10" stroke-miterlimit="10"/><path fill="none" stroke="black" paint-order="fill stroke markers" d=" M 22 94 L 28 94" stroke-miterlimit="10"/><path fill="" stroke="black" paint-order="fill stroke markers" d=" M 22 10 L 28 10" stroke-miterlimit="10"/><g transform="translate(17,94) rotate(0,0,0)"><text fill="" stroke="none" font-family="helvetica" font-size="8pt" font-style="normal" font-weight="normal" text-decoration="normal" x="0" y="0" text-anchor="end" dominant-baseline="central">0</text><g transform="rotate(0,0,0) translate(-17,-94) translate(17,10) rotate(0,0,0)"><text fill="" stroke="none" font-family="helvetica" font-size="8pt" font-style="normal" font-weight="normal" text-decoration="normal" x="0" y="0" text-anchor="end" dominant-baseline="central">0.5</text><g transform="rotate(0,0,0) translate(-17,-10)"/></g></g></g></g></g></g></svg>